<?xml version="1.0" encoding="UTF-8"?>
<svg id="b" data-name="Layer 2" xmlns="http://www.w3.org/2000/svg" width="44.8" height="44.8" viewBox="0 0 44.8 44.8">
  <g id="c" data-name="Layer 1">
    <path d="m38.25,6.55l-3.42812-2.86562-3.78438-2.04687-4.14063-1.22812-4.49688-.40937-4.47813.40937-4.13438,1.22812-3.79063,2.04687-3.44688,2.86562-2.86562,3.44688-2.04687,3.79063-1.22812,4.13438-.40937,4.47813.40937,4.47813,1.22812,4.13438,2.04687,3.79063,2.86562,3.44688,3.44688,2.86562,3.79063,2.04687,4.13438,1.22812,4.47813.40937,4.49688-.40937,4.14063-1.22812,3.78438-2.04687,3.42812-2.86562,2.86562-3.44688,2.04687-3.79063,1.22812-4.13438.40937-4.47813-.40937-4.47813-1.22812-4.13438-2.04687-3.79063-2.86562-3.44688h0Z" fill="#f79965"/>
  </g>
</svg>