<?xml version="1.0" encoding="UTF-8"?>
<svg id="b" data-name="Layer 2" xmlns="http://www.w3.org/2000/svg" width="18.8" height="18.8" viewBox="0 0 18.8 18.8">
  <g id="c" data-name="Layer 1">
    <path d="m16.05,2.75l-1.44687-1.20313-1.59063-.85937-1.73438-.51562-1.87813-.17187-1.87813.17187-1.73438.51562-1.59063.85937-1.44687,1.20313-1.20312,1.44688-.85937,1.59063-.51563,1.73438-.17188,1.87813.17188,1.87812.51563,1.73437.85937,1.59062,1.20312,1.44688,1.44687,1.20312,1.59063.85938,1.73438.51563,1.87813.17188,1.87813-.17188,1.73438-.51563,1.59063-.85938,1.44687-1.20312,1.20312-1.44688.85937-1.59062.51563-1.73437.17188-1.87812-.17188-1.87813-.51563-1.73438-.85937-1.59063-1.20312-1.44688h0Z" fill="#fff"/>
  </g>
</svg>