<?xml version="1.0" encoding="UTF-8"?>
<svg id="b" data-name="Layer 2" xmlns="http://www.w3.org/2000/svg" width="56.85" height="56.8" viewBox="0 0 56.85 56.8">
  <g id="c" data-name="Layer 1">
    <path d="m48.55,8.3l-4.36875-3.63125-4.80625-2.59375-5.24375-1.55625-5.68125-.51875-5.68125.51875-5.24375,1.55625-4.80625,2.59375-4.36875,3.63125-3.65312,4.36875-2.60938,4.80625-1.56563,5.24375-.52187,5.68125.52187,5.68125,1.56563,5.24375,2.60938,4.80625,3.65312,4.36875,4.36875,3.63125,4.80625,2.59375,5.24375,1.55625,5.68125.51875,5.68125-.51875,5.24375-1.55625,4.80625-2.59375,4.36875-3.63125,3.63125-4.36875,2.59375-4.80625,1.55625-5.24375.51875-5.68125-.51875-5.68125-1.55625-5.24375-2.59375-4.80625-3.63125-4.36875h0Z" fill="#7a1700"/>
  </g>
</svg>