<?xml version="1.0" encoding="UTF-8"?>
<svg id="b" data-name="Layer 2" xmlns="http://www.w3.org/2000/svg" width="109.8375" height="118.3" viewBox="0 0 109.8375 118.3">
  <g id="c" data-name="Layer 1">
    <path d="m49.7375,13.4l-.175-.3-.175-.3-1.7375-2.45-1.8125-2.15-6.2375-4.9625-7.3125-2.5875-2.825-.325-2.825-.325h-.35l-7.8625.95-6.8875,3.55-3.5,2.875-2.9,3.625-.8,1.175-.8,1.175-1.4875,3.0375-1.0625,3.1125-.9875,5.425.3375,5.575,1.15,4.9625,2.25,4.7875,4.0125,5.45,5.0375,4.75,1.7375,1.6125,1.3125,1.7375.275.65.275.65.5875,2.0625.2625,1.9875-.2625,1.9625-.5875,2.0875-.275.65-.275.65-1.3125,1.7125-1.7375,1.6375-5.0375,4.7125-4.0125,5.4375-2.25,4.7625-1.15,4.9875-.3375,5.5875.9875,5.4625,1.0625,3.1125,1.4875,3.0375.7,1,.7,1,3.2,4.0875,4,3.1625,6.6,3.1875,7.5.8625.2.025.2.025,2.325-.225,2.325-.225,8.2125-2.7,6.8375-5.6,1.175-1.475,1.175-1.475.525-.85.525-.85,1.2125-2.2125.9375-2.3375,1.3625-4.2125.8875-4.4375.325-1.625.475-1.475.85-1.15.85-1.15,2.0875-2.0625,2.2625-1.3875,1.2-.3,1.2-.3.9-.1.9-.1,2.0875.3,2.1625.7,6.6125,1.9875,6.7375.7625,6.175-.625,5.625-2.075,2-1.175,2-1.175,4.2125-3.6625,3.4375-4.5875.6-1.3.6-1.3,1.85-5.15.55-5.35v-1.05l-.3-2.45-.3-2.45-.7875-2.7-1.1625-2.6-.525-1.175-.525-1.175-3.3125-4.4625-4.0375-3.5875-2.4375-1.6-2.6125-1.3-5.3125-1.775-5.7375-.525-6.7375.7375-6.6125,2.0125-1.85.45-1.85.45-1.175-.075-1.175-.075-1.4-.4-1.4-.4-2.0625-1.3375-1.8875-1.9125-.875-1.075-.725-1.125-.55-1.5375-.35-1.7125-.9125-4.5375-1.4375-4.3125-.9125-2.225-1.1375-2.075h0Z" fill="#7b1900"/>
  </g>
</svg>