<?xml version="1.0" encoding="UTF-8"?>
<svg id="b" data-name="Layer 2" xmlns="http://www.w3.org/2000/svg" width="116.8" height="51.2" viewBox="0 0 116.8 51.2">
  <g id="c" data-name="Layer 1">
    <path d="m63.55,16.3l-1.20313.45938-1.25938.32813-1.31562.19687-1.37187.06562-1.37187-.06562-1.31562-.19687-1.25938-.32813-1.20313-.45938-.0875-.05-.0875-.05-.0875-.05-.0875-.05-1.09375-.64063-.98125-.72187-.86875-.80313-.75625-.88438-.5-.6375-.5-.6375-.5-.6375-.5-.6375-.80938-1.05937-.87813-1.02812-.94688-.99687-1.01563-.96562-3.81875-2.82187-4.15625-2.01563-4.49375-1.20938-4.83125-.40313-5.24687.47812-4.84063,1.43437-4.43437,2.39062-4.02812,3.34688-3.275,3.91563-2.375,4.29688-1.475,4.67813-.575,5.05938.575,5.05938,1.475,4.67813,2.375,4.29688,3.275,3.91563,4.02812,3.34688,4.43437,2.39062,4.84063,1.43437,5.24687.47812,4.83125-.4,4.49375-1.2,4.15625-2,3.81875-2.8,1.01563-.98438.94688-1.00312.87813-1.02188.80938-1.04063.5-.65.5-.65.5-.65.5-.65.75625-.88125.86875-.79375.98125-.70625,1.09375-.61875.0875-.05.0875-.05.0875-.05.0875-.05,1.20313-.47813,1.25938-.33438,1.31562-.19063,1.37187-.04687,1.37187.04687,1.31562.19063,1.25938.33438,1.20313.47813.1.05.1.05.1.05.1.05,1.07188.61875.96562.70625.85937.79375.75312.88125.5.65.5.65.5.65.5.65.80938,1.04063.87813,1.02188.94688,1.00312,1.01563.98438,3.81875,2.8,4.15625,2,4.49375,1.2,4.83125.4,5.25-.47812,4.85-1.43437,4.45-2.39062,4.05-3.34688,3.25313-3.91563,2.35938-4.29688,1.46563-4.67813.57187-5.05938-.57187-5.05938-1.46563-4.67813-2.35938-4.29688-3.25313-3.91563-4.05-3.34688-4.45-2.39062-4.85-1.43437-5.25-.47812-4.83125.40313-4.49375,1.20938-4.15625,2.01563-3.81875,2.82187-1.01563.96562-.94688.99687-.87813,1.02812-.80938,1.05937-.5.6375-.5.6375-.5.6375-.5.6375-.75312.88438-.85937.80313-.96562.72187-1.07188.64063-.1.05-.1.05-.1.05-.1.05h0Z" fill="#7b1900"/>
  </g>
</svg>