<?xml version="1.0" encoding="UTF-8"?>
<svg id="b" data-name="Layer 2" xmlns="http://www.w3.org/2000/svg" width="113.4875" height="118.3" viewBox="0 0 113.4875 118.3">
  <g id="c" data-name="Layer 1">
    <path d="m49.7375,13.4l-.0875-.15-.0875-.15-.0875-.15-.0875-.15-.85938-1.2625-.87813-1.1875-.89687-1.1125-.91563-1.0375-2.98437-2.77812-3.25313-2.18437-3.52187-1.59063-3.79062-.99688-1.4125-.1625-1.4125-.1625-1.4125-.1625-1.4125-.1625h-.35l-4.05313.15-3.80938.8-3.56562,1.45-3.32187,2.1-1.825,1.34375-1.675,1.53125-1.525,1.71875-1.375,1.90625-.4.5875-.4.5875-.4.5875-.4.5875-.79687,1.50937-.69063,1.52812-.58438,1.54687-.47812,1.56562-.65938,2.69375-.32813,2.73125.00312,2.76875.33438,2.80625.4375,2.50313.7125,2.45938.9875,2.41562,1.2625,2.37187,1.87812,2.8125,2.13438,2.6375,2.39063,2.4625,2.64687,2.2875.92188.79062.81563.82188.70938.85312.60313.88437.1375.325.1375.325.1375.325.1375.325.33438,1.04063.25313,1.02188.17188,1.00313.09062.98438-.09062.96563-.17188.99688-.25313,1.02813-.33438,1.05938-.1375.325-.1375.325-.1375.325-.1375.325-.60313.86562-.70938.84687-.81563.82813-.92188.80937-2.64687,2.26562-2.39063,2.44688-2.13438,2.62813-1.87812,2.80938-1.2625,2.35312-.9875,2.40937-.7125,2.46563-.4375,2.52188L.00312,90.55938l-.00312,2.77812.32813,2.74688.65938,2.71563.47812,1.56562.58438,1.54687.69063,1.52812.79687,1.50937.35.5.35.5.35.5.35.5,1.5,2.15937,1.7,1.92813,1.9,1.69688,2.1,1.46562,3.1875,1.88438,3.4125,1.30312,3.6375.72187,3.8625.14062.1.0125.1.0125.1.0125.1.0125,1.1625-.1125,1.1625-.1125,1.1625-.1125,1.1625-.1125,4.27812-.9875,3.93437-1.7125,3.59062-2.4375,3.24687-3.1625.5875-.7375.5875-.7375.5875-.7375.5875-.7375.2625-.425.2625-.425.2625-.425.2625-.425.64063-1.09063.57188-1.12188.50313-1.15312.43437-1.18437.74062-2.07813.62187-2.13438.50312-2.19062.38437-2.24687.14375-.83125.18125-.79375.21875-.75625.25625-.71875.425-.575.425-.575.425-.575.425-.575,1.02187-1.11562,1.06563-.94687,1.10938-.77813,1.15313-.60937.4375-.125.4375-.125.4375-.125.4375-.125,4.425,3.25937,4.825,2.32812,5.225,1.39687,5.625.46563,6.1375-.55938,5.6625-1.67812,5.1875-2.79687,4.7125-3.91562,3.91563-4.73438,2.79688-5.20313,1.67812-5.67188.55937-6.14062-.55937-6.1375-1.67812-5.6625-2.79688-5.1875-3.91563-4.7125-4.7125-3.93437-5.1875-2.80312-5.6625-1.67188-6.1375-.54063-5.62812.44688-5.23437,1.39063-4.84062,2.33437-4.44688,3.27812-.525-.1625-.525-.1625-.525-.1625-.525-.1625-1.05313-.59688-1.00938-.74063-.96563-.88437-.92188-1.02812-.45625-.53125-.41875-.54375-.38125-.55625-.34375-.56875-.3-.74687-.25-.79062-.2-.83437-.15-.87812-.39063-2.29688-.52187-2.24062-.65312-2.18438-.78437-2.12813-.42813-1.13125-.48438-1.09375-.54062-1.05625-.59688-1.01875h0Z" fill="#7b1900"/>
  </g>
</svg>