<?xml version="1.0" encoding="UTF-8"?>
<svg id="b" data-name="Layer 2" xmlns="http://www.w3.org/2000/svg" width="65.2" height="69.56563" viewBox="0 0 65.2 69.56563">
  <g id="c" data-name="Layer 1">
    <path d="m48.65,24.86875l1.56562.90625,1.64687.76875,1.72812.63125,1.80937.49375.875.05.875.05.875.05.875.05,2.34375-.09375,1.83125-.28125,1.31875-.46875.80625-.65625-.25-.64063-1.3-1.22188-2.35-1.80312-3.4-2.38437-4.07187-2.72188-4.01562-2.51563-3.95937-2.30938-3.90313-2.10312-11.12813-5.36875-8.88438-3.55625-6.64063-1.74375-4.39688.06875-2.28125,1.12188-2.04375,2.06562-1.80625,3.00937-1.56875,3.95313-1.4,5.05625-1,5.76875-.6,6.48125-.2,7.19375v.15l.2,7.17187.6,6.46562,1,5.75937,1.4,5.05312,1.56875,3.95625,1.80625,3.01875,2.04375,2.08125,2.28125,1.14375,4.39688.04687,6.64063-1.75937,8.88438-3.56562,11.12813-5.37187,3.90313-2.1,3.95937-2.3,4.01562-2.5,4.07187-2.7,3.4-2.40625,2.35-1.81875,1.3-1.23125.25-.64375-.80625-.65625-1.31875-.46875-1.83125-.28125-2.34375-.09375-.875.0625-.875.0625-.875.0625-.875.0625-1.80937.47187-1.72812.61562-1.64687.75937-1.56562.90313-2.46563,1.42813-2.29688,1.08438-2.12813.74063-1.95937.39688-2.08438.05625-2.10312-.33125-2.12187-.71875-2.14063-1.10625-.65-.5125-.65-.5125-.65-.5125-.65-.5125-1.68125-2.025-1.19375-2.225-.70625-2.425-.21875-2.625v-.15l.21875-2.64375.70625-2.43125,1.19375-2.21875,1.68125-2.00625.65-.525.65-.525.65-.525.65-.525,2.14063-1.10625,2.12187-.71875,2.10312-.33125,2.08438.05625,1.95937.39688,2.12813.74063,2.29688,1.08438,2.46563,1.42813h0Z" fill="#d4a672"/>
  </g>
</svg>