<?xml version="1.0" encoding="UTF-8"?>
<svg id="b" data-name="Layer 2" xmlns="http://www.w3.org/2000/svg" width="118" height="117.95" viewBox="0 0 118 117.95">
  <g id="c" data-name="Layer 1">
    <path d="m118,58.95l-.26953-6.01094-.80859-5.78281-1.34766-5.55469-1.88672-5.32656-2.42578-5.09844-2.96484-4.87031-3.50391-4.64219-4.04297-4.41406-4.42578-4.04297-4.65234-3.50391-4.87891-2.96484-5.10547-2.42578-5.33203-1.88672-5.55859-1.34766-5.78516-.80859-6.01172-.26953-6.01172.26953-5.78516.80859-5.55859,1.34766-5.33203,1.88672-5.10547,2.42578-4.87891,2.96484-4.65234,3.50391-4.42578,4.04297-4.04297,4.41406-3.50391,4.64219-2.96484,4.87031-2.42578,5.09844-1.88672,5.32656-1.34766,5.55469-.80859,5.78281-.26953,6.01094.26953,6.02266.80859,5.79297,1.34766,5.56328,1.88672,5.33359,2.42578,5.10391,2.96484,4.87422,3.50391,4.64453,4.04297,4.41484,4.42578,4.04297,4.65234,3.50391,4.87891,2.96484,5.10547,2.42578,5.33203,1.88672,5.55859,1.34766,5.78516.80859,6.01172.26953,6.01172-.26953,5.78516-.80859,5.55859-1.34766,5.33203-1.88672,5.10547-2.42578,4.87891-2.96484,4.65234-3.50391,4.42578-4.04297,4.04297-4.41484,3.50391-4.64453,2.96484-4.87422,2.42578-5.10391,1.88672-5.33359,1.34766-5.56328.80859-5.79297.26953-6.02266h0Z" fill="silver"/>
  </g>
</svg>