<?xml version="1.0" encoding="utf-8"?>
<svg version="1.1" id="Layer_1" xmlns="http://www.w3.org/2000/svg" xmlns:xlink="http://www.w3.org/1999/xlink" x="0px" y="0px"
	viewBox="-512 -384 1024 768">
	<style type="text/css">
		.st0{fill:#FFFFFF;}
		.st1{display:none;}
		.st2{display:inline;fill:#801700;}
		.st3{display:inline;fill:#801700;}
		.st4{fill:#D7AA73;}
		.st5{fill:none;stroke:#191919;stroke-width:7;stroke-linecap:round;stroke-linejoin:round;}
		.st6{fill:#191919;}
		.st7{fill:#801700;}
	</style>
	<path class="st0" d="M123.6-146.7c0-5-2.5-7.4-7.4-7.4h-233.4c-5,0-7.4,2.5-7.4,7.4v289.9c0,5,2.5,7.4,7.4,7.4h233.4
		c4.9,0,7.4-2.5,7.4-7.4V-146.7z"/>
		<g class="st1">
			<path class="st2" d="M-26.5-36.7L-26.5-36.7c-1-3.7-3.1-6.5-6.2-8.5h-0.2c-3.3-1.8-6.8-2.2-10.5-1.2c-3.8,1-6.6,3.2-8.6,6.7
				c-1.8,3.1-2.4,6.4-1.8,9.8v0.1l0.9,2.8l0.1,0.1l0.8,1.8v0.1c0.4,1,0.6,2,0.5,3.2v0.5c-0.1,1.2-0.5,2.4-1.2,3.6v0.1
				c-0.7,1.1-1.5,2.1-2.5,2.8l-0.5,0.3h-0.1c-1,0.5-2,0.9-3,1h-0.1l-4.9,0.9l0,0c-3.3,1.1-5.9,3.3-7.8,6.4c-1.9,3.4-2.4,7-1.5,10.8
				l0,0c1,3.6,3,6.4,6.2,8.4h0.1c3.3,1.8,6.8,2.2,10.5,1.3l0,0c3.8-1,6.7-3.3,8.7-6.7c1.8-3.1,2.4-6.3,1.8-9.8V-2l-1.7-4.7l0,0
				c-0.5-1.1-0.7-2.3-0.6-3.5l0,0v-0.3c0.1-1.2,0.4-2.4,1.1-3.5v-0.2c0.6-1.1,1.5-2.1,2.5-2.8c0.2-0.2,0.4-0.3,0.7-0.4
				c1-0.7,2-1,3.1-1.1l2-0.3l0,0l2.8-0.6h0.1c3.3-1.1,5.9-3.3,7.7-6.4C-26-29.3-25.5-32.9-26.5-36.7 M70.3,76.5L70.3,76.5
				c1.6-2.2,2.2-4.7,2.1-7.4V69l0.1-0.3l-0.2-2.3v-0.2c-0.5-3.1-2-5.7-4.4-7.8L67.4,58h0.1l-1.2-0.9h-0.1V57l-0.1-0.1L66,56.8
				l-0.6-0.3l-0.2-0.1c-0.7-0.5-1.5-0.8-2.3-1.1h-0.1c-1.5-0.6-3.1-1-4.8-1.2l-2.1-0.6l-0.2-0.2h-0.1L54,52.1L53.9,52
				c-1.1-0.9-1.8-1.9-2.3-3l0,0v-0.1l-0.4-1.6l-0.1-0.1v0.1L51,46.9l0.1,0.1L51,46.1v-0.2c0-1,0.3-2,0.7-3.1l0.1-0.1
				c0.9-2.4,1.4-4.8,1.4-7.3c0-2.2-0.4-4.3-1.4-6.2L50.4,27l0,0c-1.1-1.6-2.5-2.9-4.2-3.9l-1.4-0.7h0.1h-0.1c-1.8-0.9-3.6-1.3-5.5-1.2
				h-0.5L36,21.5c-0.9,0.2-1.8,0.5-2.6,0.9h-0.1v0.1L32,22.9c-1.8,1-3.2,2.3-4.3,3.9l-1.6,2.7L26,29.7c-0.8,1.8-1.2,3.7-1.1,5.8
				c0,2.5,0.5,5,1.5,7.4c0.4,0.9,0.6,1.8,0.6,2.7v1.2V47v0.2l-0.1,0.2l0,0l-0.5,1.8l-0.1,0.1l0,0c-0.5,1-1.3,2-2.4,2.8l-1.4,1.1h-0.1
				l-2.5,0.7h-0.1c-1.6,0.3-3.2,0.7-4.7,1.2l0,0H15c-0.8,0.3-1.5,0.7-2.2,1.1l-0.4,0.2c-0.9,0.6-1.7,1.2-2.4,1.9c-2.2,2-3.5,4.4-4,7.1
				v0.2c-0.2,1-0.3,1.9-0.3,2.9v0.3c-0.1,2.9,0.7,5.5,2.3,7.7v0.3l0,0c0.9,1.3,2,2.4,3.4,3.3l0,0l0.1,0.1l1.2,0.8
				c1.1,0.6,2.2,1.1,3.3,1.4l0.1,0.1h0.1l5.6,0.3l0.2-0.1c1.8-0.2,3.5-0.8,5.1-1.8h0.2c2-1.3,3.9-3,5.5-5c0.7-0.9,1.5-1.6,2.4-2.1
				l1.1-0.5h0.1c0.9-0.3,1.9-0.5,2.8-0.6h0.2l2.8,0.6l0,0l1,0.3l0.1,0.1l2.4,2.1l0.1,0.2c1.6,2,3.4,3.7,5.5,4.9c1.7,1,3.4,1.6,5.2,1.8
				l0.1,0.1l5.6-0.3l0.2-0.1c1.1-0.3,2.2-0.8,3.2-1.3l1-0.8v0.1l0.1-0.2C68.1,79.3,69.3,78,70.3,76.5z"/>
				<path class="st3" d="M0,89.4c-3.8,0-7,1.3-9.7,3.9c-2.6,2.7-3.9,5.9-3.9,9.6c0,3.8,1.3,7,3.9,9.7c2.7,2.6,5.9,3.9,9.7,3.9
					c3.7,0,6.9-1.3,9.5-3.9l0.1-0.1c2.7-2.7,4-5.9,4-9.7c0-3.8-1.3-7-4-9.6L9.5,93C6.9,90.6,3.7,89.4,0,89.4 M39.1,89.4
					c-3.8,0-7,1.3-9.7,3.9c-2.6,2.7-4,5.9-4,9.6c0,3.8,1.3,7,4,9.7c2.7,2.6,5.9,3.9,9.7,3.9c3.7,0,6.9-1.3,9.6-3.9l0.1-0.1
					c2.7-2.7,4-5.9,4-9.7c0-3.8-1.3-7-4-9.6L48.7,93C46,90.6,42.8,89.4,39.1,89.4 M-79.3,89.4c-3.8,0-7,1.3-9.7,3.9
					c-2.6,2.7-3.9,5.9-3.9,9.6c0,3.8,1.3,7,3.9,9.7c2.7,2.6,5.9,3.9,9.7,3.9c3.7,0,6.9-1.3,9.6-3.9l0.1-0.1c2.7-2.7,4-5.9,4-9.7
					c0-3.8-1.3-7-4-9.6l-0.1-0.2C-72.5,90.6-75.6,89.4-79.3,89.4 M-39.7,89.4c-3.8,0-7,1.3-9.7,3.9c-2.6,2.7-3.9,5.9-3.9,9.6
					c0,3.8,1.3,7,3.9,9.7c2.7,2.6,5.9,3.9,9.7,3.9c3.7,0,6.9-1.3,9.5-3.9l0.1-0.1c2.7-2.7,4-5.9,4-9.7c0-3.8-1.3-7-4-9.6l-0.1-0.2
					C-32.8,90.6-36,89.4-39.7,89.4 M-46,69.1c0-3.8-1.3-7-4-9.7s-5.9-4-9.7-4c-3.7,0-6.9,1.3-9.5,3.9l-0.1,0.1c-2.7,2.7-4,5.9-4,9.7
					s1.3,7,4,9.6l0.1,0.2c2.7,2.6,5.8,3.8,9.5,3.8c3.8,0,7-1.3,9.7-3.9C-47.3,76.1-46,72.9-46,69.1 M-20.5,55.4c-3.7,0-6.9,1.3-9.5,3.9
					l-0.1,0.1c-2.7,2.7-4,5.9-4,9.7c0,3.8,1.3,7,4,9.6l0.1,0.2c2.6,2.6,5.8,3.8,9.5,3.8c3.8,0,7-1.3,9.7-3.9c2.7-2.7,4-5.9,4-9.7
					c0-3.8-1.3-7-4-9.7C-13.5,56.8-16.7,55.4-20.5,55.4 M-39.9,21.5c-3.7,0-6.9,1.3-9.5,3.8l-0.1,0.2c-2.7,2.6-4,5.8-4,9.6s1.3,7,4,9.7
					l0.1,0.1c2.6,2.6,5.8,3.8,9.5,3.8c3.8,0,7-1.3,9.7-3.9c2.6-2.7,4-5.9,4-9.7s-1.3-7-4-9.7C-32.9,22.8-36.1,21.5-39.9,21.5
					M-69.7,25.5l-0.1-0.2c-2.7-2.6-5.8-3.8-9.6-3.8c-3.8,0-7,1.3-9.7,3.9c-2.6,2.7-3.9,5.9-3.9,9.7s1.3,7,3.9,9.7
					c2.7,2.6,5.9,3.9,9.7,3.9c3.7,0,6.9-1.3,9.6-3.8l0.1-0.1c2.7-2.7,4-5.9,4-9.7C-65.7,31.3-67,28.1-69.7,25.5 M-69.8-23.4l0.1-0.1
					c2.7-2.6,4-5.8,4-9.6s-1.3-7-4-9.7l-0.1-0.1c-2.7-2.6-5.8-3.9-9.6-3.9c-3.8,0-7,1.3-9.7,4c-2.6,2.7-3.9,5.9-3.9,9.7s1.3,7,3.9,9.6
					c2.7,2.6,5.9,4,9.7,4C-75.6-19.5-72.5-20.8-69.8-23.4 M-0.8,21.5c-3.7,0-6.9,1.3-9.5,3.8l-0.2,0.2c-2.6,2.6-3.9,5.8-3.9,9.6
					s1.3,7,3.9,9.7l0.2,0.1c2.6,2.6,5.8,3.8,9.5,3.8c3.8,0,7-1.3,9.7-3.9c2.7-2.7,4-5.9,4-9.7s-1.3-7-4-9.7C6.2,22.8,3,21.5-0.8,21.5
					M-6.8,0.8c0-3.8-1.3-7-4-9.6c-2.6-2.6-5.8-4-9.7-4c-3.7,0-6.9,1.3-9.5,3.8l-0.1,0.2c-2.7,2.6-4,5.8-4,9.6s1.3,7,4,9.7l0.1,0.1
					c2.6,2.6,5.8,3.9,9.5,3.9c3.8,0,7-1.3,9.7-4C-8.2,7.8-6.8,4.6-6.8,0.8 M12.9-33.1c0-3.8-1.3-7-4-9.7s-5.9-4-9.7-4
					c-3.7,0-6.9,1.3-9.5,3.9l-0.2,0.1c-2.6,2.7-3.9,5.9-3.9,9.7s1.3,7,3.9,9.6l0.2,0.1c2.6,2.6,5.8,3.9,9.5,3.9c3.8,0,7-1.3,9.7-4
					C11.5-26.1,12.9-29.3,12.9-33.1 M49.3-8.9l-0.1,0.2c-2.7,2.6-4,5.8-4,9.6s1.3,7,4,9.7l0.1,0.1c2.6,2.6,5.8,3.9,9.6,3.9
					c3.8,0,7-1.3,9.6-4s3.9-5.9,3.9-9.7s-1.3-7-3.9-9.6c-2.7-2.6-5.9-4-9.6-4C55.1-12.8,51.9-11.5,49.3-8.9 M32.8,0.8
					c0-3.8-1.3-7-3.9-9.6c-2.7-2.6-5.9-4-9.7-4c-3.7,0-6.9,1.3-9.6,3.8v0.2c-2.7,2.6-4,5.8-4,9.6s1.3,7,4,9.7l0.1,0.1
					c2.6,2.6,5.8,3.9,9.6,3.9s7-1.3,9.7-4C31.5,7.8,32.8,4.6,32.8,0.8 M38.9-46.8c-3.7,0-6.9,1.3-9.6,3.9l-0.1,0.1
					c-2.7,2.7-4,5.9-4,9.7s1.3,7,4,9.6l0.1,0.1c2.6,2.6,5.8,3.9,9.6,3.9s7-1.3,9.6-4c2.7-2.7,4-5.9,4-9.6c0-3.8-1.3-7-4-9.7
					C45.9-45.4,42.7-46.8,38.9-46.8 M88.2,93.3c-2.7-2.6-5.9-3.9-9.6-3.9s-6.9,1.3-9.6,3.8l-0.1,0.2c-2.7,2.6-4,5.8-4,9.6
					c0,3.8,1.3,7,4,9.7l0.1,0.1c2.6,2.6,5.8,3.9,9.6,3.9c3.8,0,7-1.3,9.6-3.9c2.6-2.7,4-5.9,4-9.7C92.2,99.2,90.8,96,88.2,93.3
					M78.6,48.7c3.8,0,7-1.3,9.6-3.9c2.6-2.7,4-5.9,4-9.7s-1.3-7-4-9.7c-2.7-2.6-5.9-3.9-9.6-3.9s-6.9,1.3-9.6,3.8l-0.1,0.2
					c-2.7,2.6-4,5.8-4,9.6s1.3,7,4,9.7l0.1,0.1C71.6,47.4,74.8,48.7,78.6,48.7 M78.6-19.5c3.8,0,7-1.3,9.6-4s4-5.9,4-9.6
					c0-3.8-1.3-7-4-9.7s-5.9-4-9.6-4s-6.9,1.3-9.6,3.9l-0.1,0.1c-2.7,2.7-4,5.9-4,9.7s1.3,7,4,9.6l0.1,0.1
					C71.6-20.8,74.8-19.5,78.6-19.5z"/>
				</g>
				<path class="st4" d="M-43.1-129.1h-14.1v65.9h14.1V-129.1 M-61.4-129.1c-2-0.5-4.6-0.8-7.7-0.8c-4.4-0.2-8.6,1.2-12.4,4.4
					c-4,4.2-5.9,9.3-5.8,15.2v1.7h-5.9V-98h5.9v34.7h14.1V-98h9.1v-10.6h-9.1v-2.2c-0.1-4.8,2-7.5,6.5-8c1.8,0,3.4,0.2,4.6,0.8
					L-61.4-129.1 M36.6-108.5H22.5v45.3h14.1V-108.5 M11.3-108.5H-2.8v27c0,1.1-0.2,2.1-0.6,2.9c-0.5,1.2-1.3,2.3-2.4,3.3
					c-1.2,1-2.8,1.5-4.8,1.5c-5-0.1-7.4-3.6-7.2-10.4v-24.3h-14.1V-82c0.1,6.9,1.7,12,4.7,15.2c2.8,3.1,6.6,4.6,11.3,4.6
					c4.2-0.1,7.4-1,9.7-2.8c2.4-1.6,4-3.2,4.8-4.8H-1l0.5,6.5h12.2c-0.2-3.8-0.3-8.7-0.3-14.5L11.3-108.5 M29.3-114.1
					c4.8-0.4,7.4-2.7,7.6-7.1c-0.2-4.6-2.8-7-7.6-7.2c-4.8,0.2-7.3,2.7-7.4,7.2C22-116.8,24.5-114.4,29.3-114.1 M91.9-129.1H77.6v24.7
					h-0.1c-2.1-3.3-6.1-5.1-11.9-5.2c-5.6,0-10.3,2.1-14.1,6.3c-3.8,4.2-5.8,10.1-6,17.8c0.1,7.2,2,12.8,5.6,17
					c3.6,4.1,8.1,6.2,13.6,6.3c6.2,0,11-2.6,14.3-7.8l0.8,6.7h12.6c-0.3-3.5-0.4-8-0.4-13.6L91.9-129.1 M77.4-91.8l0.1,8.3
					c0.1,1.3,0,2.4-0.4,3.3c-1,4.2-3.7,6.4-8,6.7c-6.2-0.3-9.4-4.4-9.6-12.4c0-3.7,0.8-6.7,2.4-9.1c1.6-2.5,4-3.7,7.2-3.7
					C73.8-98.3,76.5-96,77.4-91.8z"/>
					<path id="Layer0_3_1_STROKES" class="st5" d="M116.2-154.1h-233.4c-5,0-7.4,2.5-7.4,7.4v289.9c0,5,2.5,7.4,7.4,7.4h233.4
						c4.9,0,7.4-2.5,7.4-7.4v-289.9C123.6-151.6,121.2-154.1,116.2-154.1z"/>
						<path class="st6" d="M-99.2,161.9c0.4-0.4,0.9-0.6,1.4-0.5c0.5,0,1,0.3,1.4,0.7c0.1-0.1,0.2-0.2,0.4-0.3c0.6-0.5,1.2-0.5,1.9-0.2
							c0.7,0.3,0.9,0.9,1,1.6c0.1,1.9,0.1,3.8,0.2,5.7c0,0.3-0.1,0.5-0.3,0.7c-0.3,0.2-0.6,0.2-0.8,0c-0.2-0.1-0.3-0.3-0.3-0.6
							c0-1.4-0.1-2.9-0.1-4.3c0-0.5,0-1-0.1-1.5c0-0.1-0.1-0.2-0.2-0.3c-0.1,0-0.3,0-0.3,0c-0.3,0.2-0.6,0.5-0.8,0.7
							c-0.1,0.1-0.1,0.2-0.1,0.3c0,1.7,0,3.4,0,5c0,0.6-0.6,1-1.1,0.7c-0.2-0.1-0.3-0.3-0.3-0.5c0-0.1,0-0.2,0-0.3c0-1.9,0-3.7,0-5.6
							c0-0.3-0.1-0.5-0.4-0.4c-0.1,0-0.1,0-0.2,0.1c-0.3,0.2-0.6,0.5-0.9,0.8c-0.1,0.1-0.1,0.2-0.1,0.2c0,1.7,0,3.3,0,5
							c0,0.7-0.7,0.9-1.1,0.7c-0.2-0.1-0.3-0.3-0.3-0.6c0-0.2,0-0.4,0-0.6c0-2.1,0-4.2,0-6.2c0-0.6,0.5-0.9,1-0.7
							C-99.4,161.5-99.2,161.6-99.2,161.9z M-77.6,167.9c0-2.9,0-5.9,0-8.8c0-0.1,0-0.2,0-0.3c0-0.2-0.1-0.4-0.3-0.5
							c-0.4-0.3-1.2,0-1.2,0.7c0,3.5,0,6.9,0,10.4c0,0.1,0,0.1,0,0.2c0.1,0,0.2,0,0.2,0c1.6,0,3.1,0,4.7,0c0.6,0,1.1,0,1.7,0
							c0.4,0,0.7-0.2,0.7-0.6c0.1-0.5-0.2-0.9-0.7-0.9c-1.6,0-3.2,0-4.8,0c-0.1,0-0.2,0-0.3,0C-77.6,168.1-77.6,168-77.6,167.9z
							M-115.9,170c0,0.3-0.1,0.5-0.3,0.7c-0.1,0.1-0.3,0.2-0.4,0.3c-0.2,0.2-0.5,0.3-0.7,0.3c-1,0-1.9,0-2.9,0c-0.3,0-0.5,0.1-0.6,0.3
							c-0.3,0.4-0.1,1.2,0.7,1.1c0.9,0,1.9,0,2.8,0c0.6,0,1.1-0.2,1.5-0.5c0.2-0.2,0.4-0.3,0.6-0.5c0.5-0.5,0.8-1,0.8-1.8
							c0-1.2,0-2.4,0-3.6c0-1.4,0-2.9,0-4.3c0-0.4-0.3-0.7-0.7-0.7c-0.4,0-0.7,0.3-0.7,0.7c0,0.1,0,0.2,0,0.3c-0.2-0.2-0.4-0.3-0.6-0.5
							c-0.3-0.3-0.7-0.4-1.1-0.5c-0.4,0-0.8,0-1.2,0c-0.6,0-1.1,0.1-1.6,0.5c-0.2,0.2-0.5,0.3-0.7,0.5c-0.4,0.4-0.7,0.9-0.7,1.5
							c0,1.1,0,2.2,0,3.4c0,0.1,0,0.2,0,0.3c0.2,1.2,1.1,1.7,2.1,2.2c0.1,0,0.1,0,0.2,0c0.5,0,1,0,1.5,0c0.6,0,1.1-0.2,1.5-0.6
							c0.1-0.1,0.3-0.2,0.5-0.4C-115.9,169.2-115.9,169.6-115.9,170z M-120.3,165.5c0-0.5,0-1,0-1.4c0-0.3,0.1-0.5,0.3-0.7
							c0.4-0.4,0.9-0.5,1.4-0.5c1,0,0.7-0.1,1.6,0.6c0.3,0.2,0.5,0.4,0.8,0.6c0.2,0.1,0.3,0.3,0.3,0.5c0,0.6,0,1.3,0,1.9
							c0,0.2-0.1,0.5-0.3,0.6c-0.4,0.3-0.8,0.7-1.3,1c-0.1,0.1-0.2,0.1-0.4,0.1c-0.4,0-0.8,0-1.2,0c-0.1,0-0.3-0.1-0.4-0.1
							c-0.2-0.1-0.3-0.2-0.5-0.3c-0.2-0.2-0.3-0.4-0.3-0.7C-120.3,166.5-120.3,166-120.3,165.5z M-56.5,162.1c0-1,0-2.1,0-3.1
							c0-0.5-0.3-0.7-0.7-0.7s-0.7,0.3-0.7,0.7c0,3.3,0,6.6,0,10c0,0.5,0.3,0.7,0.7,0.7s0.7-0.3,0.7-0.7c0-0.1,0-0.2,0-0.3
							c0.2,0.2,0.4,0.3,0.6,0.5c0.2,0.2,0.5,0.4,0.8,0.4c0.7,0.2,1.5,0.1,2.3,0c0.5-0.1,0.9-0.4,1.3-0.7c0.6-0.5,0.9-1.1,0.9-1.8
							c0-1.1,0-2.1,0-3.2c0-0.3-0.1-0.6-0.2-0.9c-0.3-0.6-0.8-1-1.3-1.3c-0.3-0.2-0.6-0.3-0.9-0.3c-0.5,0-1,0-1.5,0s-0.9,0.2-1.3,0.6
							c-0.2,0.1-0.3,0.3-0.5,0.4C-56.5,162.2-56.5,162.2-56.5,162.1z M-52.2,165.5c0,0.5,0,1,0,1.5c0,0.3-0.1,0.5-0.4,0.8
							c-0.4,0.4-0.9,0.5-1.4,0.5c-1,0-0.7,0.1-1.5-0.5c-0.3-0.2-0.5-0.4-0.8-0.6c-0.2-0.1-0.3-0.3-0.3-0.6c0-0.7,0-1.3,0-2
							c0-0.2,0.1-0.4,0.3-0.5c0.4-0.3,0.8-0.7,1.2-1c0.1-0.1,0.3-0.2,0.5-0.2c0.4,0,0.7,0,1.1,0c0.2,0,0.4,0.1,0.5,0.2
							c0.8,0.6,0.8,0.5,0.8,1.5C-52.2,164.8-52.2,165.2-52.2,165.5z M-88.2,166.6c1.1,0,2.2,0,3.4,0c0.5,0,0.9,0,1.4,0s0.8-0.3,0.8-0.8
							s0-1.1,0-1.6c0-0.6-0.2-1.2-0.6-1.6c-0.3-0.3-0.7-0.6-1.1-0.9c-0.3-0.2-0.7-0.3-1.1-0.3c-0.5,0-1,0-1.5,0s-1,0.1-1.4,0.5
							c-0.2,0.2-0.5,0.4-0.7,0.5c-0.5,0.4-0.8,0.9-0.8,1.5c0,1.1,0,2.1,0,3.2c0,0.6,0.3,1.1,0.7,1.5c0.2,0.2,0.5,0.4,0.7,0.6
							c0.3,0.3,0.7,0.5,1.1,0.5c1.4,0,2.8,0,4.1,0c0.2,0,0.4-0.1,0.5-0.3c0.3-0.4,0-1.2-0.7-1.1c-1,0-2.1,0-3.1,0c-1.1,0-0.8,0.1-1.5-0.6
							c-0.3-0.3-0.5-0.6-0.4-1.1C-88.3,166.6-88.2,166.6-88.2,166.6z M-84,165.1c-1.5,0-2.9,0-4.4,0c0-0.4,0-0.8,0-1.1
							c0-0.2,0.1-0.3,0.2-0.4l0.1-0.1c0.9-0.8,0.6-0.6,1.8-0.6c0.3,0,0.5,0,0.8,0c0.2,0,0.4,0.1,0.5,0.2c0.2,0.1,0.4,0.3,0.6,0.5
							c0.1,0.1,0.3,0.3,0.3,0.5C-84,164.4-84,164.7-84,165.1z M-105.2,169.3c0.2,0.3,0.5,0.4,0.8,0.3c0.4-0.1,0.5-0.3,0.5-0.7
							c0-0.6,0-1.2-0.1-1.8c0-1.2-0.1-2.5-0.1-3.7c0-1.1-1-2.1-2.1-2.1c-1,0-1.9,0-2.9,0c-0.3,0-0.4,0.1-0.6,0.4c-0.2,0.4,0,1.1,0.7,1.1
							c0.9,0,1.8,0,2.6,0c0.4,0,0.7,0.2,0.8,0.6c0.1,0.4,0.1,0.8,0.1,1.2c-0.2,0-0.4-0.1-0.6-0.1c-1,0-2,0-3.1,0c-0.8,0-1.9,0.8-2,1.7
							c0,0.4-0.1,0.9-0.1,1.3c-0.1,1.2,1.1,2.3,2.2,2.2c0.6,0,1.3,0,1.9,0c0.3,0,0.7-0.1,0.9-0.3c0.2-0.2,0.5-0.3,0.7-0.5
							C-105.3,169.1-105.3,169.2-105.2,169.3z M-107.5,165.9c0.4,0,0.9,0,1.3,0c0.5,0,0.7,0.3,0.8,0.8c0.1,0.5-0.1,0.8-0.5,0.9
							c-0.2,0.1-0.3,0.2-0.5,0.3c-0.4,0.3-0.8,0.4-1.3,0.3c-0.4,0-0.8,0-1.2,0c-0.4,0-0.7-0.3-0.8-0.7c0-0.3,0-0.6,0-0.9
							c0-0.4,0.3-0.7,0.7-0.7C-108.4,165.9-108,165.9-107.5,165.9L-107.5,165.9z M-63.5,164.5c-1,0-2,0-3,0c-0.8,0-1.9,0.8-2,1.7
							c0,0.4-0.1,0.9-0.1,1.3c-0.1,1.2,1.1,2.3,2.2,2.2c0.6,0,1.2,0,1.9,0c0.4,0,0.7-0.1,1-0.3c0.2-0.2,0.5-0.3,0.7-0.4
							c0,0.1,0.1,0.3,0.1,0.4c0.2,0.3,0.5,0.4,0.9,0.3c0.3-0.1,0.5-0.3,0.5-0.7c0-0.6,0-1.2-0.1-1.8c0-1.2-0.1-2.5-0.1-3.7
							c0-1-0.8-2-1.9-2.1s-2.1,0-3.2,0c-0.2,0-0.4,0.1-0.5,0.3c-0.2,0.4,0,1.1,0.7,1.1c0.9,0,1.8,0,2.7,0c0.4,0,0.7,0.3,0.8,0.6
							c0,0.4,0,0.7,0.1,1.1C-63.1,164.5-63.3,164.5-63.5,164.5z M-65,165.9c0.4,0,0.9,0,1.3,0c0.4,0,0.8,0.3,0.8,0.8c0,0.6,0,0.6-0.5,0.9
							c-0.4,0.2-0.7,0.5-1.1,0.6s-0.8,0-1.3,0c-0.2,0-0.4,0-0.6,0c-0.4,0-0.7-0.3-0.8-0.7c0-0.3,0-0.5,0-0.8c0-0.4,0.3-0.7,0.8-0.7
							C-65.9,165.9-65.4,165.9-65,165.9z"/>
							<path class="st6" d="M119,158.3l-6.3,9.1l-1.4-2.1c0.9-0.7,1.5-1.8,1.5-3.1c0-2.2-1.8-3.9-4-3.9h-5.3v2.7h5.3c0.7,0,1.3,0.6,1.3,1.2
								c0,0.7-0.6,1.2-1.3,1.2h-5.3v6.2h2.7v-3.5h2.5l2.5,3.5h3.3l4.6-6.7v6.7h2.7v-11.4H119V158.3z"/>
								<g>
									<circle class="st7" cx="78.5" cy="102.9" r="13.6"/>
									<circle class="st7" cx="-79.3" cy="102.9" r="13.6"/>
									<circle class="st7" cx="-39.9" cy="102.9" r="13.6"/>
									<circle class="st7" cx="-0.4" cy="102.9" r="13.6"/>
									<circle class="st7" cx="39.1" cy="102.9" r="13.6"/>
									<circle class="st7" cx="78.5" cy="34.9" r="13.6"/>
									<circle class="st7" cx="-79.3" cy="34.9" r="13.6"/>
									<circle class="st7" cx="-39.9" cy="34.9" r="13.6"/>
									<circle class="st7" cx="-0.4" cy="34.9" r="13.6"/>
									<circle class="st7" cx="-59.6" cy="68.9" r="13.6"/>
									<circle class="st7" cx="-20.1" cy="68.9" r="13.6"/>
									<circle class="st7" cx="-20.1" cy="0.9" r="13.6"/>
									<circle class="st7" cx="19.3" cy="0.9" r="13.6"/>
									<circle class="st7" cx="58.8" cy="0.9" r="13.6"/>
									<circle class="st7" cx="78.5" cy="-33.1" r="13.6"/>
									<circle class="st7" cx="-79.3" cy="-33.1" r="13.6"/>
									<circle class="st7" cx="-0.4" cy="-33.1" r="13.6"/>
									<circle class="st7" cx="39.1" cy="-33.1" r="13.6"/>
								</g>
								<path class="st7" d="M-33-44.9c-6.5-3.8-14.8-1.6-18.6,4.9c-1.8,3.1-2.2,6.6-1.5,9.8c0.8,3.6,0.2,7.5-1.8,11s-5.1,5.9-8.7,7
									c-3.2,1-6,3.1-7.8,6.2c-3.8,6.5-1.6,14.8,4.9,18.6s14.8,1.6,18.6-4.9c1.8-3.1,2.2-6.6,1.5-9.8c-0.8-3.6-0.2-7.5,1.8-11
									s5.1-5.9,8.7-7c3.2-1,6-3.1,7.8-6.2C-24.3-32.8-26.5-41.1-33-44.9z"/>
									<path class="st7" d="M39.1,75c-4.1,0-7.8,1.5-10.7,4c-1.5,1.4-3.4,2.4-5.6,3c-3.4,0.9-7.1,0.5-10.3-1.4C6,76.9,3.8,68.6,7.5,62.1
										c1.8-3.1,4.6-5.2,7.8-6.2c3.5-1.1,6.7-3.6,8.7-7c2-3.4,2.6-7.3,1.8-10.9c-0.2-1-0.4-2-0.4-3.1c0-7.5,6.1-13.6,13.6-13.6
										s13.6,6.1,13.6,13.6c0,1.1-0.1,2.1-0.4,3.1c-0.7,3.6-0.2,7.5,1.8,10.9c2,3.5,5.1,5.9,8.7,7c3.2,1,6,3.1,7.8,6.2
										c3.8,6.5,1.6,14.8-4.9,18.6c-3.3,1.9-7,2.3-10.3,1.4c-2.1-0.6-4-1.6-5.6-3C46.9,76.5,43.2,75,39.1,75z"/>
									</svg>
